# xmcd
#
# Track frame offsets:
#	150
#	18910
#	53837
#	75903
#	88100
#	112934
#	142337
#	162963
#	181773
# Disc length: 2641 seconds
# Revision: 1
# Processed by: cddbd v1.5PL3 Copyright (c) Steve Scherf et al.
#
# Submitted via: libkcddb 0.10
#
DISCID=660a4f09
DTITLE=Egypt - Midnight Sun
DYEAR=1900
DGENRE=
TTITLE0=Midnight Sun
TTITLE1=12.01
TTITLE2=Griff
TTITLE3=Just a Little Bit
TTITLE4=Mean Town Blues
TTITLE5=Worried Life Blues
TTITLE6=Raising Cain
TTITLE7=Down on the Farm
TTITLE8=Boneshaker
EXTD=
EXTT0=
EXTT1=
EXTT2=
EXTT3=
EXTT4=
EXTT5=
EXTT6=
EXTT7=
EXTT8=
PLAYORDER=
